<?xml version="1.0" encoding="utf-8"?>
<!-- Generator: Adobe Illustrator 26.3.1, SVG Export Plug-In . SVG Version: 6.00 Build 0)  -->
<svg version="1.1" id="Layer_1" xmlns="http://www.w3.org/2000/svg" xmlns:xlink="http://www.w3.org/1999/xlink" x="0px" y="0px"
	 viewBox="0 0 5000 2500" style="enable-background:new 0 0 5000 2500;" xml:space="preserve">
<style type="text/css">
	.st0{fill:#202632;}
</style>
<g>
	<g>
		<g>
			<g>
				<path class="st0" d="M2212.3,1368.9V1170h-103.8v-105.1h103.8V939.2l127.1-33.8v159.5H2497V1170h-157.7v197
					c0,52.6,28.3,83.2,77.3,83.2c27.9,0,48-5.5,69.5-21l45.3,94.6c-33.4,26.1-78.2,38.4-126.2,38.4
					C2281.3,1561.3,2212.3,1491.8,2212.3,1368.9z"/>
				<path class="st0" d="M2537.3,1306.3c0-144.4,112.4-253.2,263.8-253.2c151.3,0,263.8,108.8,263.8,253.2
					c0,144.9-112.4,253.2-263.8,253.2C2649.7,1559.5,2537.3,1451.6,2537.3,1306.3z M2801,1447c77.7,0,135.3-59.9,135.3-139.9
					c0-80-58.1-140.3-135.3-140.3c-77.7,0-135.3,59.9-135.3,139.9S2723.8,1447,2801,1447z"/>
				<path class="st0" d="M3097.2,1433.8l126.2-33.8c8.2,39.3,44.3,61.3,103.3,61.3c48,0,83.2-21.9,83.2-50.7
					c0-21-24.7-36.6-62.2-44.3l-94.2-20.1c-89.1-18.7-143.5-66.7-143.5-134.4c0-95.1,82.3-158.2,203-158.2
					c107.9,0,189.7,49.4,211.2,128.4l-118.8,32c-7.8-37.9-44.8-63.1-96.9-63.1c-43.4,0-72.7,20.6-72.7,49.4
					c0,22.4,19.7,33.8,52.6,41.6l110.2,25.1c84.1,18.7,134.8,66.3,134.8,133.9c0,99.6-83.2,159.1-218,159.1
					C3196.9,1560,3114.6,1512,3097.2,1433.8z"/>
				<path class="st0" d="M3563.9,1433.8l126.2-33.8c8.2,39.3,44.3,61.3,103.3,61.3c48,0,83.2-21.9,83.2-50.7
					c0-21-24.7-36.6-62.2-44.3l-94.2-19.7c-89.1-18.7-143.5-66.7-143.5-134.4c0-95.1,82.3-158.2,203-158.2
					c107.9,0,189.7,49.4,211.2,128.4l-118.8,32c-7.8-37.9-44.8-63.1-96.9-63.1c-43.4,0-72.7,20.6-72.7,49.4
					c0,22.4,19.7,33.8,52.6,41.6l110.2,25.1c84.1,18.7,134.8,66.3,134.8,133.9c0,99.6-83.2,159.1-218,159.1
					C3663.6,1560,3581.7,1512,3563.9,1433.8z"/>
			</g>
		</g>
	</g>
	
		<image style="overflow:visible;enable-background:new    ;" width="1920" height="1784" xlink:href="77FA69B8B316AAEF.png"  transform="matrix(0.5124 0 0 0.5124 1000 792.9231)">
	</image>
</g>
</svg>
